<?xml version="1.0" encoding="iso-8859-1"?>
<!-- Generator: Adobe Illustrator 19.0.0, SVG Export Plug-In . SVG Version: 6.00 Build 0)  -->
<svg version="1.1" id="Layer_1" xmlns="http://www.w3.org/2000/svg" xmlns:xlink="http://www.w3.org/1999/xlink" x="0px" y="0px"
	 viewBox="0 0 512 512" style="enable-background:new 0 0 512 512;" xml:space="preserve">
<path style="fill:#5AC2AD;" d="M499.327,91.248H236.99H12.673C5.674,91.248,0,96.921,0,103.921v304.158
	c0,6.999,5.674,12.673,12.673,12.673H236.99h262.337c6.999,0,12.673-5.674,12.673-12.673V103.921
	C512,96.921,506.326,91.248,499.327,91.248z"/>
<path style="fill:#1DA49C;" d="M499.327,91.248H236.99v329.505h262.337c6.999,0,12.673-5.674,12.673-12.673V103.921
	C512,96.921,506.326,91.248,499.327,91.248z"/>
<g>
	<rect x="236.99" y="91.248" style="fill:#198F88;" width="38.02" height="329.505"/>
	<path style="fill:#198F88;" d="M256,176.158c-6.551,0-12.914,0.81-19.01,2.305v40.304c5.708-2.926,12.166-4.589,19.01-4.589
		c23.06,0,41.822,18.762,41.822,41.822S279.06,297.822,256,297.822c-6.844,0-13.302-1.663-19.01-4.589v40.304
		c6.096,1.495,12.459,2.305,19.01,2.305c44.024,0,79.842-35.817,79.842-79.842S300.024,176.158,256,176.158z"/>
</g>
<path style="fill:#1DA49C;" d="M214.178,256c0-16.217,9.284-30.298,22.812-37.233v-40.304
	c-34.874,8.553-60.832,40.063-60.832,77.536s25.957,68.984,60.832,77.536v-40.304C223.463,286.298,214.178,272.217,214.178,256z"/>
<rect x="446.834" y="195.168" style="fill:#198F88;" width="65.166" height="121.663"/>
<rect y="195.168" style="fill:#1DA49C;" width="65.166" height="121.663"/>
<g>
</g>
<g>
</g>
<g>
</g>
<g>
</g>
<g>
</g>
<g>
</g>
<g>
</g>
<g>
</g>
<g>
</g>
<g>
</g>
<g>
</g>
<g>
</g>
<g>
</g>
<g>
</g>
<g>
</g>
</svg>
